<svg xmlns="http://www.w3.org/2000/svg" viewBox="0 0 48 48">
  <path d="M8 4h20l12 12v28H8z" fill="currentColor" fill-opacity="0.2" stroke="currentColor" stroke-width="1.5" stroke-linejoin="round"/>
  <path d="M28 4v12h12" fill="currentColor" fill-opacity="0.2" stroke="currentColor" stroke-width="1.5" stroke-linejoin="round"/>
  <path d="m 12.656,25.981 h 3.432 q 1.531,0 2.347,0.682 0.822,0.677 0.822,1.934 0,1.262 -0.822,1.944 -0.816,0.677 -2.347,0.677 H 14.724 V 34 H 12.656 Z m 2.068,1.499 v 2.24 h 1.144 q 0.602,0 0.929,-0.29 0.328,-0.296 0.328,-0.833 0,-0.537 -0.328,-0.827 -0.328,-0.29 -0.929,-0.29 z m 8.062,0.064 v 4.893 h 0.741 q 1.268,0 1.934,-0.628 0.671,-0.629 0.671,-1.826 0,-1.193 -0.666,-1.816 -0.666,-0.623 -1.939,-0.623 z m -2.068,-1.563 h 2.181 q 1.826,0 2.718,0.263 0.897,0.258 1.536,0.881 0.564,0.542 0.838,1.251 0.274,0.709 0.274,1.606 0,0.908 -0.274,1.622 -0.274,0.709 -0.838,1.251 -0.644,0.623 -1.547,0.886 Q 24.704,34 22.899,34 h -2.181 z m 9.131,0 h 5.581 v 1.563 h -3.513 v 1.493 h 3.303 v 1.563 H 31.917 V 34 h -2.068 z" fill="currentColor"/>
</svg>
