
<svg
   viewBox="0 0 68 68"
   xmlns="http://www.w3.org/2000/svg">
   
   <path
       id="path2-2"
       stroke="currentColor"
       stroke-opacity="1"
       fill="currentColor"
       fill-opacity="0.0"
       stroke-width="1"
       d="m 24.754187,4.3309145 -5.149831,5.8860625 c -1.732158,-0.3361442 -3.480103,-0.6194634 -5.503862,0.01636 -0.253447,-0.217035 -3.147047,2.90092 -5.1110035,4.844522 l 1.4450605,3.389569 -1.8657077,5.071031 5.8030727,21.46117 c 0.926246,2.795527 0.902194,5.630546 4.023782,8.334594 4.430181,3.376125 9.222511,6.565145 14.346275,9.743108 0.761109,0.420013 1.555641,0.45102 2.391049,0.0044 l 12.743236,-8.539399 c 2.422953,-1.870783 4.254472,-4.10569 4.860897,-7.094339 l 6.332215,-23.962629 -1.760638,-5.07103 1.445061,-3.33703 c -1.735525,-1.663952 -4.118081,-4.488805 -5.253377,-4.842248 -2.661529,-0.7219468 -3.873561,-0.200569 -5.477592,0.0029 L 42.936565,4.3831524 Z m 9.20558,8.9493875 c 0.277375,0.0015 0.530152,0.01878 0.766685,0.04604 1.70234,0.503359 4.768036,1.425539 5.104527,1.509776 0.324535,0.10528 0.707451,0.09429 1.131001,0.0015 l 5.761966,-1.041916 c 2.09665,2.776572 4.465496,5.242333 6.54121,9.234519 0.298111,0.669895 0.165034,1.690213 -0.280181,2.405134 -1.972478,2.127324 -4.579649,4.818414 -6.744117,7.162479 -0.333831,0.351998 -0.797492,1.089784 -0.325095,2.076223 l 0.54932,1.421834 c 0.555699,1.918099 0.50783,2.638942 -0.856912,4.60432 -1.117733,1.29918 -2.170345,2.026012 -3.604651,1.494542 -0.794524,-0.294399 -1.68278,-0.758877 -2.314915,-1.091405 -2.256874,-1.187193 -3.754488,-2.515537 -4.96672,-4.014263 -0.492273,-0.700335 -0.147825,-1.147893 -0.07424,-1.268042 1.31199,-1.548937 6.159562,-3.793958 6.348973,-4.665602 0.04154,-0.191289 0.07811,-0.31115 -0.06924,-0.870998 l -2.341177,-4.607362 c -0.466718,-1.398584 0.495595,-2.073658 0.724806,-2.24829 3.395035,-1.607532 5.404737,-2.121299 7.703432,-3.075884 0.129747,-0.05385 0.221255,-0.08772 0.297308,-0.144666 -0.05886,-0.04626 -0.158272,-0.07873 -0.284365,-0.103926 -1.755238,-0.350695 -3.398851,-0.266811 -5.113285,-0.372684 -1.339269,-0.04685 -4.563657,1.09587 -4.851381,1.263474 -0.209743,0.127502 -0.652924,0.350827 -0.514675,1.08988 0.766406,4.097056 1.769581,8.613919 1.429834,9.082251 -0.468766,0.590978 -2.563596,1.019153 -3.789664,1.151929 -0.187487,0.02033 -0.746287,0.01289 -0.948271,-0.02932 -0.857686,-0.179288 -3.331304,-0.487462 -3.377005,-1.011846 -0.228232,-2.618625 0.86072,-6.334062 1.37806,-9.035797 0.04796,-0.250516 0.137175,-1.087979 -0.751458,-1.311821 -1.48157,-0.430047 -2.910335,-0.992338 -4.481356,-1.198758 -1.688594,-0.06114 -3.470145,0.01167 -5.406411,0.371542 -0.209174,0.03948 -0.148304,0.09399 0.122197,0.18577 2.388811,0.931816 3.974669,1.400596 7.200168,2.815122 0.667812,0.51052 1.506683,0.842893 1.37387,2.187385 -0.792041,1.634469 -1.506026,3.284667 -2.42112,4.919138 -0.157453,0.190205 -0.194986,0.928831 -0.02283,1.15117 0.418231,0.503559 3.656895,2.537519 6.167006,4.374387 0.46772,0.703236 0.245986,0.951667 -0.0263,1.36626 l -1.011463,1.313721 c -0.687093,0.605379 -1.39022,1.21534 -2.417315,1.917864 -1.216437,0.611692 -2.412854,1.230065 -3.772144,1.794141 -0.279872,0.08306 -0.932221,0.411159 -1.537571,0.158366 -0.733892,-0.306456 -1.798549,-1.058652 -2.306541,-1.787282 -0.896176,-1.285404 -1.378489,-2.510542 -0.209374,-5.442196 0.763341,-1.516236 -0.117608,-2.196807 -0.40657,-2.641152 -2.269743,-2.440801 -4.031765,-4.301205 -5.989984,-6.385936 -1.473104,-1.412013 -1.08898,-2.92271 -0.223082,-4.236196 l 5.87122,-7.951634 6.320802,1.02403 c 0.297523,0.01327 0.619973,-5.08e-4 0.939514,-0.09669 1.227245,-0.42139 3.681238,-1.287362 4.792747,-1.443152 0.335349,-0.03448 0.637394,-0.04788 0.914776,-0.04604 z m -0.0849,27.720684 c 0.374238,0.03845 0.488435,0.113272 0.591958,0.148849 2.90775,1 4.961548,2.078647 7.238997,3.449717 0.283688,0.241447 0.374591,0.517393 0.0221,0.890024 l -0.144659,0.155317 -6.805024,5.422396 c -0.716143,0.531397 -1.096804,0.501157 -1.721049,0.02667 l -6.983174,-5.498912 c -0.420817,-0.436883 -0.338827,-0.77498 -0.0059,-1.063618 2.614794,-1.421606 4.942793,-2.635841 7.306751,-3.415455 0.09911,-0.0327 0.214382,-0.07747 0.500213,-0.114964 z" />
    <path
       id="path2"
       fill="currentColor"
       fill-opacity="1"
       stroke-width="1.5"
       stroke-opacity="0"
       stroke="currentColor"
       d="m 33.858948,13.250195 c -0.277382,-0.0017 -0.579427,0.01167 -0.914776,0.04606 -1.111509,0.155788 -3.565507,1.021761 -4.79275,1.443152 -0.319538,0.09618 -0.641994,0.109959 -0.939516,0.09669 l -6.320799,-1.02403 -5.871218,7.951634 c -0.865899,1.313486 -1.250022,2.824183 0.223079,4.236196 1.958218,2.084731 3.72024,3.945135 5.989988,6.385894 0.288963,0.444345 1.169907,1.124916 0.406566,2.641152 -1.169113,2.931654 -0.6868,4.156792 0.209374,5.442196 0.507991,0.72863 1.572652,1.480826 2.306536,1.787291 0.605348,0.252792 1.257693,-0.07531 1.537563,-0.158367 l 3.772151,-1.794141 2.417315,-1.917863 1.011463,-1.313722 c 0.272254,-0.414592 0.493988,-0.663024 0.02627,-1.36626 -2.51011,-1.836868 -5.748782,-3.870828 -6.167006,-4.374387 -0.172146,-0.222339 -0.134616,-0.960965 0.02284,-1.15117 0.915091,-1.634471 1.629072,-3.284668 2.42112,-4.919138 0.132811,-1.344492 -0.706065,-1.676865 -1.373873,-2.187384 -3.225504,-1.414527 -4.811363,-1.883307 -7.200167,-2.815123 -0.270504,-0.09178 -0.331376,-0.146286 -0.122198,-0.18577 1.936261,-0.359881 3.717813,-0.432684 5.406407,-0.371542 1.57102,0.20642 2.999789,0.768711 4.481357,1.198758 0.888636,0.223842 0.799432,1.061305 0.75146,1.311821 -0.517339,2.701736 -1.60629,6.417172 -1.378058,9.035797 0.0457,0.524384 2.519322,0.832558 3.377007,1.011846 0.201985,0.04221 0.760786,0.04964 0.948273,0.02932 1.226066,-0.132776 3.320897,-0.560952 3.789663,-1.151929 0.339748,-0.468332 -0.663428,-4.985196 -1.429834,-9.08225 -0.138249,-0.739055 0.304933,-0.96238 0.514674,-1.089881 0.287725,-0.167605 3.512112,-1.310326 4.851381,-1.263474 1.714436,0.105875 3.358047,0.02199 5.113286,0.372684 0.126094,0.02519 0.225506,0.05769 0.284365,0.103915 -0.07606,0.05694 -0.16756,0.09081 -0.297308,0.144665 -2.298694,0.954585 -4.308396,1.468354 -7.703431,3.075885 -0.229212,0.174633 -1.191525,0.849707 -0.724807,2.248291 l 2.341177,4.607362 c 0.14739,0.559846 0.110833,0.679708 0.06929,0.870996 -0.189411,0.871646 -5.036983,3.116666 -6.348973,4.665604 -0.07359,0.120149 -0.41804,0.567706 0.07424,1.26804 1.212232,1.498727 2.709846,2.82707 4.96672,4.014263 0.632135,0.332528 1.520391,0.797008 2.314915,1.091407 1.434306,0.53147 2.486918,-0.195363 3.604651,-1.494542 1.364744,-1.965379 1.412611,-2.686222 0.856912,-4.604321 l -0.549329,-1.421835 c -0.472399,-0.986438 -0.0087,-1.724224 0.325095,-2.076223 2.164466,-2.344065 4.771637,-5.035156 6.744116,-7.162479 0.445215,-0.71492 0.578292,-1.735238 0.280181,-2.405133 -2.075715,-3.992187 -4.44456,-6.457947 -6.541211,-9.23452 l -5.761966,1.041916 c -0.42355,0.09277 -0.806465,0.103763 -1.131,-0.0015 -0.336491,-0.08423 -3.402188,-1.006412 -5.104527,-1.509771 -0.236534,-0.02729 -0.489311,-0.04428 -0.766686,-0.04606 z m -0.0849,27.720683 c -0.285831,0.0375 -0.401111,0.08226 -0.500213,0.114963 -2.363964,0.779615 -4.691961,1.99385 -7.306757,3.415455 -0.332735,0.288638 -0.414724,0.626736 0.0061,1.063619 l 6.98318,5.498911 c 0.624245,0.474513 1.004906,0.504752 1.72105,-0.02665 l 6.805023,-5.422396 0.144659,-0.155317 c 0.352513,-0.372633 0.26161,-0.648577 -0.02207,-0.890025 -2.277449,-1.37107 -4.331248,-2.449716 -7.238998,-3.449716 -0.103518,-0.03558 -0.21772,-0.110402 -0.591957,-0.148851 z" />
   
</svg>
