<?xml version="1.0" encoding="UTF-8" standalone="no"?>
<!-- Uploaded to: SVG Repo, www.svgrepo.com, Generator: SVG Repo Mixer Tools -->

<svg
   width="8"
   height="8"
   viewBox="0 0 100 100"
   xmlns="http://www.w3.org/2000/svg">

<path
	fill="currentColor"
	stroke="currentColor"
	stroke-width="1.5"
	transform="scale(0.8) translate(12,12)"
	
    d="m 29.558,12.097 c 2.575,-1.385 5.283,-2.504 8.084,-3.341 2.788,-0.921 1.516,-5.034 -1.311,-4.252 -3.063,0.92 -6.026,2.146 -8.849,3.661 -1.124,0.603 -1.521,2.022 -0.865,3.116 0.609,1.012 1.902,1.375 2.941,0.816 z"
    id="path17" />
<path
	fill="currentColor"
	stroke="currentColor"
	stroke-width="1.5"
	transform="scale(0.8) translate(12,12)"
	
    d="m 37.641,91.259 c -2.192,-0.661 -4.327,-1.496 -6.385,-2.498 -2.254,-1.234 -9.826,-2.314 -9.162,1.924 0.279,1.194 1.473,1.937 2.667,1.659 0.93,-0.176 2.367,-0.771 3.256,-0.2 2.653,1.387 5.433,2.516 8.299,3.372 2.791,0.799 4.091,-3.353 1.325,-4.257 z"
    id="path2" />
<path
	fill="currentColor"
	stroke="currentColor"
	stroke-width="1.5"
	transform="scale(0.8) translate(12,12)"
	
    d="m 12.025,76.22 c 0,0 0.784,-3.37 0.784,-3.37 0.127,-0.544 0.036,-1.111 -0.24,-1.596 C 10.967,68.435 9.69,65.441 8.766,62.337 7.873,59.569 3.715,60.853 4.515,63.653 c 0.859,2.867 1.99,5.647 3.373,8.3 0.569,0.881 -0.026,2.333 -0.2,3.251 -0.593,2.869 3.596,3.863 4.337,1.016 z"
    id="path3" />
<path
	fill="currentColor"
	stroke="currentColor"
	stroke-width="1.5"
	transform="scale(0.8) translate(12,12)"
	
    d="m 15.429,89.922 c 0,0 -3.502,0.819 -3.502,0.819 -1.604,0.375 -3.044,-1.064 -2.67,-2.668 l 0.826,-3.546 c 0.595,-2.869 -3.601,-3.852 -4.337,-1.01 0,0 -1.637,7.026 -1.637,7.026 -0.564,2.396 0.928,4.793 3.316,5.349 0.665,0.155 1.361,0.155 2.033,0 l 7.018,-1.613 c 2.874,-0.748 1.842,-4.963 -1.047,-4.357 z"
    id="path4" />
<path
	fill="currentColor"
	stroke="currentColor"
	stroke-width="1.5"
	transform="scale(0.8) translate(12,12)"
	
    d="m 45.619,7.173 c 2.916,-0.296 5.853,-0.296 8.769,0 2.911,0.201 3.296,-4.081 0.397,-4.432 -3.18,-0.32 -6.386,-0.321 -9.566,0 -1.272,0.128 -2.182,1.292 -1.989,2.556 0.177,1.157 1.223,1.994 2.389,1.876 z"
    id="path5" />
<path
	fill="currentColor"
	stroke="currentColor"
	stroke-width="1.5"
	transform="scale(0.8) translate(12,12)"
	
    d="m 91.243,37.628 c 0.338,1.131 1.51,1.791 2.656,1.505 1.24,-0.306 1.965,-1.591 1.598,-2.814 -0.919,-3.063 -2.145,-6.024 -3.66,-8.839 -1.417,-2.549 -5.266,-0.528 -3.932,2.078 1.383,2.57 2.501,5.275 3.338,8.07 z"
    id="path6" />
<path
	fill="currentColor"
	stroke="currentColor"
	stroke-width="1.5"
	transform="scale(0.8) translate(12,12)"
	
    d="m 13.59,23.153 c 0.99,0.738 2.379,0.589 3.194,-0.339 1.599,-1.821 4.206,-4.686 6.028,-6.173 2.223,-1.918 -0.541,-5.256 -2.854,-3.448 -2.473,2.019 -4.737,4.283 -6.756,6.756 -0.805,0.986 -0.632,2.444 0.388,3.204 z"
    id="path7" />
<path
	fill="currentColor"
	stroke="currentColor"
	stroke-width="1.5"
	transform="scale(0.8) translate(12,12)"
	
    d="m 83.358,22.803 c 0.754,0.926 2.112,1.076 3.059,0.35 1.02,-0.76 1.193,-2.219 0.389,-3.204 -2.019,-2.473 -4.283,-4.737 -6.756,-6.756 -2.312,-1.825 -5.072,1.568 -2.83,3.467 2.247,1.837 4.304,3.895 6.138,6.143 z"
    id="path8" />
<path
	fill="currentColor"
	stroke="currentColor"
	stroke-width="1.5"
	transform="scale(0.8) translate(12,12)"
	
    d="m 86.409,76.836 c -0.958,-0.712 -2.306,-0.551 -3.061,0.373 -1.841,2.252 -3.905,4.311 -6.159,6.149 -0.917,0.747 -1.076,2.088 -0.368,3.036 0.757,1.027 2.22,1.206 3.209,0.4 2.475,-2.017 4.743,-4.279 6.768,-6.748 0.807,-0.986 0.634,-2.449 -0.389,-3.21 z"
    id="path9" />
<path
	fill="currentColor"
	stroke="currentColor"
	stroke-width="1.5"
	transform="scale(0.8) translate(12,12)"
	
    d="m 54.38,92.82 c -2.913,0.295 -5.847,0.295 -8.76,-10e-4 -2.912,-0.202 -3.299,4.089 -0.398,4.44 3.18,0.32 6.387,0.321 9.567,0 1.272,-0.128 2.182,-1.292 1.989,-2.555 -0.177,-1.162 -1.227,-2.002 -2.398,-1.884 z"
    id="path10" />
<path
	fill="currentColor"
	stroke="currentColor"
	stroke-width="1.5"
	transform="scale(0.8) translate(12,12)"
	
    d="m 93.887,60.85 c -1.145,-0.283 -2.314,0.377 -2.651,1.507 -0.837,2.803 -1.957,5.511 -3.342,8.087 -0.56,1.04 -0.195,2.336 0.819,2.942 1.093,0.658 2.513,0.262 3.118,-0.861 1.519,-2.821 2.745,-5.791 3.661,-8.856 0.365,-1.225 -0.363,-2.512 -1.605,-2.819 z"
    id="path11" />
<path
	fill="currentColor"
	stroke="currentColor"
	stroke-width="1.5"
	transform="scale(0.8) translate(12,12)"
	
    d="m 97.252,45.215 c -0.128,-1.27 -1.29,-2.18 -2.552,-1.989 -1.166,0.176 -1.995,1.233 -1.875,2.406 0.297,2.901 0.296,5.831 0,8.733 -0.215,2.925 4.07,3.327 4.428,0.417 0.319,-3.181 0.319,-6.387 -0.001,-9.567 z"
    id="path12" />
<path
	fill="currentColor"
	stroke="currentColor"
	stroke-width="1.5"
	transform="scale(0.8) translate(12,12)"
	
    d="m 70.441,87.897 c -2.57,1.384 -5.274,2.502 -8.07,3.338 -2.785,0.92 -1.518,5.035 1.308,4.254 3.063,-0.919 6.024,-2.145 8.839,-3.66 1.123,-0.604 1.52,-2.023 0.863,-3.117 -0.606,-1.012 -1.9,-1.375 -2.94,-0.815 z"
    id="path13" />
<path
	fill="currentColor"
	stroke="currentColor"
	stroke-width="1.5"
	transform="scale(0.8) translate(12,12)"
	
    d="m 7.181,54.367 c -0.294,-2.903 -0.294,-5.834 0,-8.737 0.211,-2.925 -4.075,-3.323 -4.433,-0.414 -0.32,3.18 -0.32,6.386 0,9.566 0.356,2.905 4.643,2.513 4.433,-0.415 z"
    id="path14" />
<path
	fill="currentColor"
	stroke="currentColor"
	stroke-width="1.5"
	transform="scale(0.8) translate(12,12)"
	
    d="m 8.764,37.635 c 0.836,-2.801 1.955,-5.507 3.339,-8.082 0.559,-1.04 0.195,-2.335 -0.819,-2.942 -1.059,-0.634 -2.433,-0.235 -2.979,0.872 -1.177,2.385 -3.039,6.326 -3.794,8.844 -0.78,2.824 3.332,4.097 4.253,1.308 z"
    id="path15" />
<path
	fill="currentColor"
	stroke="currentColor"
	stroke-width="1.5"
	transform="scale(0.8) translate(12,12)"
	
    d="m 62.357,8.757 c 2.803,0.837 5.511,1.957 8.087,3.342 1.04,0.559 2.335,0.195 2.941,-0.818 0.659,-1.093 0.262,-2.514 -0.862,-3.118 -2.818,-1.515 -5.787,-2.74 -8.856,-3.659 -2.821,-0.781 -4.102,3.328 -1.31,4.253 z"
    id="path16" />
<path
	fill="currentColor"
	stroke="currentColor"
	stroke-width="1.5"
	transform="scale(0.8) translate(12,12)"
	fill-opacity="0.4"
    d="M 18.958,85.616 29.956,83.045 C 47.673,93.797 71.349,88.504 82.629,70.601 106.114,31.09 55.856,-8.752 22.596,22.834 10.127,34.912 7.702,55.261 16.848,69.97 c 0,0 -2.578,10.972 -2.578,10.972 -0.724,2.698 1.974,5.409 4.688,4.674 z"
    id="path1" />

</svg>
